<svg version="1.2" xmlns="http://www.w3.org/2000/svg" viewBox="0 0 283 301" width="283" height="301">
	<style>
		.s0 { fill: #0a0a0a } 
	</style>
	<g>
		<path class="s0" d="m255.61 271.96c-1.03-0.68-4.08-3.17-11.41-9.21-3.54-2.91-9.36-7.73-12.98-10.73-15.06-12.41-29.41-24.33-62.76-52.06-7.07-5.88-14.55-12.07-16.66-13.81-2.11-1.71-6.53-5.39-9.84-8.13-3.31-2.77-8.59-7.1-11.73-9.7-3.14-2.57-10.13-8.36-15.55-12.84-8.79-7.3-20.2-16.72-26.65-22.02l-2.31-1.88-0.09 48.78-0.06 48.78-0.77 0.63c-0.43 0.31-1.77 1.45-2.94 2.48-1.17 1.03-3.82 3.25-5.88 4.99-4.54 3.79-14.09 11.87-22.22 18.8-3.31 2.82-7.47 6.36-9.27 7.85-1.77 1.48-4.42 3.77-5.91 5.08-2.65 2.31-2.71 2.34-4.19 2.34-1.14 0-1.57-0.11-1.71-0.46-0.11-0.31-0.26-193.48-0.17-248.79v-1.8h1c0.8 0 1.43 0.37 3.48 2.08 1.37 1.14 7.33 6.02 13.21 10.81 5.88 4.79 12.95 10.58 15.69 12.84 2.74 2.25 8.53 6.99 12.84 10.5 4.31 3.51 9.39 7.67 11.3 9.27 1.91 1.57 4.59 3.77 5.99 4.91 4.85 3.91 36.57 29.87 43.19 35.32 2.11 1.74 5.65 4.62 7.85 6.42 4.48 3.65 9.36 7.67 16.55 13.58 2.68 2.2 9.47 7.79 15.09 12.41 5.65 4.62 13.98 11.44 18.54 15.21l8.3 6.79 0.09-48.04 0.06-48.07 8.33-7.1c4.56-3.91 13.21-11.27 19.17-16.38 5.99-5.11 12.87-10.95 15.29-13.04 2.45-2.05 4.62-3.94 4.82-4.19 0.29-0.34 0.88-0.46 2.31-0.46 1.08 0 2.11 0.06 2.34 0.14 0.31 0.11 0.37 20.23 0.31 118.91-0.03 65.3-0.06 121.33-0.09 124.53v5.76h-0.94c-0.51 0-1.26-0.23-1.63-0.48zm-3.2-182.1l-0.09-57.06-1.74 1.48c-0.94 0.83-7.73 6.65-15.09 12.92-7.36 6.28-15.69 13.41-18.51 15.83l-5.16 4.42-0.09 52.29-0.06 52.26h-1c-1.11 0-1.6-0.37-19.54-15.09-24.22-19.88-32.47-26.65-41.22-33.81-13.32-10.9-20.31-16.63-21.97-18-1.14-0.97-18.29-15.01-28.96-23.74-1.17-0.94-5.53-4.54-9.7-7.93-18.29-14.98-27.64-22.65-33.24-27.24-3.31-2.68-8.64-7.07-11.92-9.73l-5.91-4.82v114.6 114.57l0.63-0.57c0.66-0.57 20.23-17.15 22.17-18.77 0.86-0.71 9.16-7.73 16.63-14.06l1.91-1.63v-52.83l0.03-52.86h1.06c1.43 0 0.83-0.46 30.04 23.68 7.3 6.02 18.8 15.52 25.53 21.08 6.76 5.56 14.38 11.9 16.97 14.04 2.6 2.17 7.93 6.59 11.84 9.81 3.94 3.25 10.01 8.33 13.55 11.27 6.68 5.59 26.79 22.28 38.63 32.07 3.79 3.11 10.53 8.7 15.01 12.41 4.48 3.71 10.84 8.99 14.12 11.7l5.99 4.96 0.09-57.11c0.03-31.38 0.03-82.76 0-114.14z"/>
	</g>
	<g>
		<path class="s0" d="m247.88 258.98c-2.88-2.37-6.9-5.71-8.96-7.39-3.31-2.71-15.98-13.21-27.1-22.45-2.2-1.83-9.64-7.99-16.55-13.72-6.9-5.71-15.12-12.55-18.26-15.18-3.14-2.62-8.9-7.42-12.84-10.67-3.91-3.22-9.24-7.65-11.84-9.81-2.6-2.14-10.21-8.47-16.97-14.04-6.73-5.56-18.23-15.06-25.53-21.08-23.82-19.68-28.76-23.68-29.18-23.68-0.11 0-0.2 23.79-0.23 52.86v52.83l-1.91 1.63c-1.06 0.88-5.11 4.34-9.04 7.65-3.91 3.34-8.99 7.62-11.27 9.56-2.28 1.91-7.85 6.65-12.41 10.53l-8.27 6.99-0.09-116.57c-0.03-64.1 0-116.62 0.06-116.68 0.11-0.14 7.07 5.48 19.43 15.6 5.59 4.62 15.03 12.35 33.24 27.24 4.17 3.39 8.53 6.99 9.7 7.93 10.67 8.73 27.82 22.77 28.96 23.74 1.65 1.37 8.64 7.1 21.97 18 8.76 7.16 17 13.92 41.22 33.81 5.25 4.31 11.61 9.5 14.12 11.53l4.56 3.68 0.14-52.32 0.14-52.35 5.16-4.42c2.82-2.42 8.93-7.65 13.55-11.58 4.62-3.94 11.15-9.53 14.52-12.41 3.37-2.88 6.82-5.82 7.65-6.48l1.48-1.26v116.42c0 64.05-0.06 116.42-0.09 116.42-0.06 0-2.48-1.94-5.36-4.33z"/>
	</g>
</svg>