<svg version="1.2" xmlns="http://www.w3.org/2000/svg" viewBox="0 0 283 301" width="283" height="301">
	<style>
		.s0 { fill: #f5f3ee } 
	</style>
	<g>
		<path class="s0" d="m255.98 271.63c-1.03-0.68-4.09-3.16-11.43-9.18-3.55-2.89-9.39-7.7-13.02-10.69-15.09-12.36-29.48-24.24-62.91-51.87-7.09-5.86-14.59-12.03-16.7-13.76-2.12-1.7-6.55-5.37-9.87-8.1-3.31-2.76-8.61-7.07-11.75-9.66-3.15-2.57-10.16-8.33-15.59-12.8-8.81-7.27-20.25-16.66-26.72-21.94l-2.31-1.87 0.05 48.78 0.09 48.78-0.77 0.63c-0.43 0.31-1.77 1.46-2.93 2.49-1.17 1.03-3.81 3.26-5.87 5.01-4.53 3.8-14.05 11.91-22.16 18.86-3.3 2.83-7.45 6.39-9.25 7.88-1.76 1.49-4.41 3.78-5.89 5.1-2.65 2.32-2.71 2.35-4.19 2.35-1.14 0-1.57-0.1-1.71-0.45-0.11-0.31-0.84-193.48-0.91-248.79l-0.01-1.8 1-0.01c0.8 0 1.44 0.37 3.49 2.07 1.37 1.14 7.35 6 13.24 10.77 5.9 4.78 12.98 10.55 15.73 12.8 2.75 2.24 8.55 6.96 12.87 10.46 4.32 3.5 9.41 7.64 11.33 9.24 1.91 1.56 4.6 3.75 6 4.89 4.87 3.89 36.66 29.76 43.3 35.19 2.11 1.73 5.66 4.6 7.87 6.4 4.49 3.63 9.38 7.64 16.59 13.53 2.69 2.19 9.49 7.76 15.13 12.36 5.66 4.6 14.01 11.4 18.58 15.16l8.32 6.76-0.05-48.04-0.09-48.07 8.31-7.12c4.55-3.93 13.18-11.31 19.12-16.44 5.98-5.13 12.84-10.99 15.26-13.09 2.44-2.05 4.6-3.95 4.8-4.2 0.29-0.34 0.88-0.46 2.31-0.47 1.08 0 2.11 0.06 2.34 0.13 0.31 0.11 0.43 20.23 0.67 118.91 0.16 65.3 0.3 121.33 0.28 124.53l0.02 5.76-0.94 0.01c-0.51 0-1.26-0.23-1.64-0.48zm-3.74-182.09l-0.26-57.06-1.73 1.49c-0.94 0.83-7.71 6.67-15.06 12.96-7.34 6.3-15.65 13.46-18.46 15.89l-5.15 4.43 0.07 52.29 0.1 52.26-1 0.01c-1.11 0-1.6-0.37-19.59-15.04-24.28-19.8-32.55-26.55-41.32-33.68-13.35-10.86-20.36-16.57-22.02-17.94-1.15-0.96-18.34-14.95-29.03-23.65-1.18-0.94-5.55-4.52-9.73-7.9-18.33-14.93-27.7-22.57-33.32-27.14-3.32-2.67-8.66-7.05-11.95-9.7l-5.92-4.8 0.34 114.6 0.34 114.57 0.63-0.57c0.66-0.57 20.18-17.21 22.11-18.84 0.86-0.71 9.14-7.76 16.59-14.11l1.91-1.63-0.16-52.83-0.13-52.86 1.06-0.01c1.43 0 0.83-0.46 30.11 23.59 7.32 6 18.85 15.47 25.6 21.01 6.77 5.54 14.41 11.85 17.01 13.99 2.6 2.16 7.95 6.56 11.87 9.77 3.95 3.24 10.03 8.3 13.58 11.23 6.7 5.57 26.86 22.2 38.73 31.96 3.79 3.09 10.55 8.66 15.04 12.36 4.49 3.7 10.87 8.96 14.16 11.66l6 4.94-0.08-57.11c-0.06-31.38-0.22-82.76-0.34-114.14z"/>
	</g>
	<g>
		<path class="s0" d="m247.88 258.98c-2.88-2.37-6.9-5.71-8.96-7.39-3.31-2.71-15.98-13.21-27.1-22.45-2.2-1.83-9.64-7.99-16.55-13.72-6.9-5.71-15.12-12.55-18.26-15.18-3.14-2.62-8.9-7.42-12.84-10.67-3.91-3.22-9.24-7.65-11.84-9.81-2.6-2.14-10.21-8.47-16.97-14.04-6.73-5.56-18.23-15.06-25.53-21.08-23.82-19.68-28.76-23.68-29.18-23.68-0.11 0-0.2 23.79-0.23 52.86v52.83l-1.91 1.63c-1.06 0.88-5.11 4.34-9.04 7.65-3.91 3.34-8.99 7.62-11.27 9.56-2.28 1.91-7.85 6.65-12.41 10.53l-8.27 6.99-0.09-116.57c-0.03-64.1 0-116.62 0.06-116.68 0.11-0.14 7.07 5.48 19.43 15.6 5.59 4.62 15.03 12.35 33.24 27.24 4.17 3.39 8.53 6.99 9.7 7.93 10.67 8.73 27.82 22.77 28.96 23.74 1.65 1.37 8.64 7.1 21.97 18 8.76 7.16 17 13.92 41.22 33.81 5.25 4.31 11.61 9.5 14.12 11.53l4.56 3.68 0.14-52.32 0.14-52.35 5.16-4.42c2.82-2.42 8.93-7.65 13.55-11.58 4.62-3.94 11.15-9.53 14.52-12.41 3.37-2.88 6.82-5.82 7.65-6.48l1.48-1.26v116.42c0 64.05-0.06 116.42-0.09 116.42-0.06 0-2.48-1.94-5.36-4.33z"/>
	</g>
</svg>